<?xml version="1.0" encoding="iso-8859-1"?>
<!-- Generator: Adobe Illustrator 19.0.0, SVG Export Plug-In . SVG Version: 6.00 Build 0)  -->
<svg version="1.1" id="Layer_1" xmlns="http://www.w3.org/2000/svg" xmlns:xlink="http://www.w3.org/1999/xlink" x="0px" y="0px"
	 viewBox="0 0 511.998 511.998" style="enable-background:new 0 0 511.998 511.998;" xml:space="preserve">
<g>
	<g>
		<path d="M464.059,61.565c-63.814-63.814-167.651-63.814-231.467,0L34.181,259.973c-45.578,45.584-45.575,119.754,0.008,165.335
			c22.793,22.793,52.723,34.189,82.665,34.186c29.934-0.003,59.878-11.396,82.668-34.186l181.87-181.872
			c27.352-27.346,27.355-71.848,0.003-99.204c-27.352-27.349-71.856-27.348-99.202,0.005L163.258,263.168
			c-9.131,9.13-9.131,23.935-0.002,33.067c9.133,9.131,23.935,9.131,33.068,0l118.937-118.934
			c9.116-9.117,23.951-9.117,33.067-0.003c9.116,9.119,9.116,23.951-0.003,33.068L166.457,392.241
			c-27.352,27.348-71.852,27.352-99.202,0.002c-27.349-27.351-27.352-71.853-0.006-99.204L265.659,94.632
			c45.583-45.579,119.752-45.581,165.335,0.002c22.082,22.08,34.244,51.439,34.242,82.666c0,31.228-12.16,60.586-34.245,82.668
			L232.587,458.379c-9.131,9.131-9.131,23.935,0.002,33.067c4.566,4.566,10.55,6.848,16.533,6.848
			c5.983,0,11.968-2.284,16.534-6.848l198.401-198.409c30.916-30.913,47.941-72.015,47.941-115.735
			C512.001,133.58,494.975,92.478,464.059,61.565z"/>
	</g>
</g>
<g>
</g>
<g>
</g>
<g>
</g>
<g>
</g>
<g>
</g>
<g>
</g>
<g>
</g>
<g>
</g>
<g>
</g>
<g>
</g>
<g>
</g>
<g>
</g>
<g>
</g>
<g>
</g>
<g>
</g>
</svg>
